<?xml version="1.0" encoding="utf-8"?>
<!-- Generator: Adobe Illustrator 28.0.0, SVG Export Plug-In . SVG Version: 6.00 Build 0)  -->
<svg version="1.1" id="Layer_1" xmlns="http://www.w3.org/2000/svg" xmlns:xlink="http://www.w3.org/1999/xlink" x="0px" y="0px"
	 viewBox="0 0 640 640" style="enable-background:new 0 0 640 640;" xml:space="preserve">
<style type="text/css">
	.st0{fill-rule:evenodd;clip-rule:evenodd;fill:url(#SVGID_1_);}
	.st1{fill:url(#SVGID_00000057146773568260802480000010434027070566931635_);}
	.st2{fill:url(#SVGID_00000082336927509282823870000005944940537250619015_);}
</style>
<g>
	
		<linearGradient id="SVGID_1_" gradientUnits="userSpaceOnUse" x1="183.7796" y1="-567.599" x2="-150.0506" y2="-176.2945" gradientTransform="matrix(1 0 0 1 287 710)">
		<stop  offset="0" style="stop-color:#FFE600"/>
		<stop  offset="1" style="stop-color:#AA9900"/>
	</linearGradient>
	<path class="st0" d="M319.2,95.1c-6.8,0-12.2,5.5-12.2,12.2v39.1c0,6.8,5.5,12.2,12.2,12.2s12.2-5.5,12.2-12.2v-39.1
		C331.4,100.6,325.9,95.1,319.2,95.1z M319.2,481.6c-6.8,0-12.2,5.5-12.2,12.2v39.1c0,6.8,5.5,12.2,12.2,12.2s12.2-5.5,12.2-12.2
		v-39.1C331.4,487,325.9,481.6,319.2,481.6z M415,129.8c3.4-5.8,10.9-7.9,16.7-4.5c5.8,3.4,7.9,10.9,4.5,16.7l-19.6,33.9
		c-3.4,5.8-10.9,7.9-16.7,4.5c-5.9-3.4-7.9-10.9-4.5-16.7L415,129.8z M238.5,459.9c-5.8-3.4-13.3-1.4-16.7,4.5l-19.6,33.9
		c-3.4,5.8-1.4,13.3,4.5,16.7c5.8,3.4,13.3,1.4,16.7-4.5l19.6-33.9C246.3,470.8,244.3,463.3,238.5,459.9z M497.3,203.2
		c5.8-3.4,13.3-1.4,16.7,4.5c3.4,5.8,1.4,13.3-4.5,16.7l-33.8,19.5c-5.9,3.4-13.3,1.4-16.7-4.5c-3.4-5.8-1.4-13.3,4.5-16.7
		L497.3,203.2z M179.4,400.8c-3.4-5.9-10.9-7.9-16.7-4.5l-33.9,19.6c-5.8,3.4-7.9,10.9-4.5,16.7c3.4,5.8,10.9,7.9,16.7,4.5
		l33.9-19.6C180.7,414.2,182.7,406.7,179.4,400.8z M531.9,307.9c6.8,0,12.2,5.5,12.2,12.2c0,6.8-5.5,12.2-12.2,12.2h-39.1
		c-6.8,0-12.2-5.5-12.2-12.2c0-6.8,5.5-12.2,12.2-12.2H531.9z M157.7,320.1c0-6.8-5.5-12.2-12.2-12.2h-39.1
		c-6.8,0-12.2,5.5-12.2,12.2c0,6.8,5.5,12.2,12.2,12.2h39.1C152.3,332.4,157.7,326.9,157.7,320.1z M509.5,415.9
		c5.8,3.4,7.9,10.9,4.5,16.7c-3.4,5.8-10.9,7.9-16.7,4.5l-33.9-19.6c-5.8-3.4-7.9-10.9-4.5-16.7c3.4-5.9,10.9-7.9,16.7-4.5
		L509.5,415.9z M179.4,239.4c3.4-5.8,1.4-13.3-4.5-16.7L141,203.1c-5.8-3.4-13.3-1.4-16.7,4.5c-3.4,5.8-1.4,13.3,4.5,16.7l33.9,19.6
		C168.5,247.3,176,245.3,179.4,239.4z M436.1,498.3c3.4,5.8,1.4,13.3-4.5,16.7s-13.3,1.4-16.7-4.5l-19.6-33.9
		c-3.4-5.9-1.4-13.3,4.5-16.7c5.8-3.4,13.3-1.4,16.7,4.5L436.1,498.3z M238.5,180.4c5.8-3.4,7.9-10.9,4.5-16.7l-19.6-33.9
		c-3.4-5.8-10.9-7.9-16.7-4.5s-7.9,10.9-4.5,16.7l19.6,33.9C225.1,181.7,232.6,183.7,238.5,180.4z"/>
	
		<linearGradient id="SVGID_00000169537747134762659330000010780833208194718888_" gradientUnits="userSpaceOnUse" x1="400.3769" y1="179.4607" x2="235.8187" y2="464.4838">
		<stop  offset="0.1814" style="stop-color:#FDE300"/>
		<stop  offset="0.275" style="stop-color:#FBD900"/>
		<stop  offset="0.8777" style="stop-color:#F09801"/>
	</linearGradient>
	<circle style="fill:url(#SVGID_00000169537747134762659330000010780833208194718888_);" cx="319.2" cy="320.1" r="142"/>
	
		<linearGradient id="SVGID_00000041288588273289246100000008960466133317638790_" gradientUnits="userSpaceOnUse" x1="-37.8677" y1="-558.0327" x2="154.9422" y2="-94.9127" gradientTransform="matrix(1 0 0 1 287 710)">
		<stop  offset="0" style="stop-color:#FFE600"/>
		<stop  offset="1" style="stop-color:#9C8D00"/>
	</linearGradient>
	<path style="fill:url(#SVGID_00000041288588273289246100000008960466133317638790_);" d="M319.2,462.1c-78.3,0-142-63.7-142-142
		s63.7-142,142-142s142,63.7,142,142C461.1,398.4,397.4,462.1,319.2,462.1z M319.2,183.2c-75.5,0-137,61.4-137,137
		c0,75.5,61.4,137,137,137s137-61.4,137-137C456.1,244.6,394.7,183.2,319.2,183.2z"/>
</g>
</svg>
